# xmcd
#
# Track frame offsets: 
#        150
#        17476
#        38362
#        53525
#        72834
#
# Disc length: 1220 seconds
#
# Revision: 1
# Processed by: cddbd v1.5.2PL0 Copyright (c) Steve Scherf et al.
# Submitted via: ExactAudioCopyFreeDBPlugin 1.0
#
DISCID=2d04c205
DTITLE=K.I.Z. - Hahnenkampf - WassBass Remixe
DYEAR=2009
DGENRE=Rap
TTITLE0=Böhses Mädchen feat. Massimo (WassBass RMX)
TTITLE1=Walpurgisnacht (WassBass RMX)
TTITLE2=Ellenbogengesellschaft (Pogen) (WassBass RMX)
TTITLE3=Herbstzeitblätter (WassBass RMX)
TTITLE4=Spasst (WassBass RMX)
EXTD=YEAR: 2009
EXTT0=
EXTT1=
EXTT2=
EXTT3=
EXTT4=
PLAYORDER=
